<?xml version="1.0" encoding="UTF-8"?>
<svg id="Layer_1" xmlns="http://www.w3.org/2000/svg" viewBox="0 0 1252.31 709.19">
  <defs>
    <style>
      .cls-1 {
        fill: #010101;
      }

      .cls-2 {
        fill: #231f20;
        font-family: Helvetica-Light, Helvetica;
        font-size: 117px;
        font-weight: 300;
        letter-spacing: .09em;
      }

      .cls-3 {
        fill: #34744a;
      }
    </style>
  </defs>
  <g>
    <path class="cls-1" d="M1.74,2.72h10.9l33.07,75.06L78.91,2.72h10.77v86.7h-9.04V19.82h-.37l-30.72,69.61h-7.68L11.15,19.82h-.25v69.61H1.74V2.72Z"/>
    <path class="cls-1" d="M124.85,0c3.1,0,5.7,2.6,5.7,5.82s-2.6,5.7-5.7,5.7-5.82-2.6-5.82-5.7,2.73-5.82,5.82-5.82ZM120.39,25.02h8.8v64.41h-8.8V25.02Z"/>
    <path class="cls-1" d="M180.59,31.34c-12.14,0-19.69,7.56-19.69,20.19v37.9h-8.8V25.02h8.8v12.14c1.36-4.34,7.93-13.38,22.54-13.38,12.63,0,23.29,6.81,23.29,26.01v39.64h-8.8v-37.9c0-12.63-5.2-20.19-17.34-20.19Z"/>
    <path class="cls-1" d="M258.01,31.34c-12.14,0-19.69,7.56-19.69,20.19v37.9h-8.8V25.02h8.8v12.14c1.36-4.34,7.93-13.38,22.54-13.38,12.63,0,23.29,6.81,23.29,26.01v39.64h-8.8v-37.9c0-12.63-5.2-20.19-17.34-20.19Z"/>
    <path class="cls-1" d="M303.84,57.47c0-23.41,13.37-33.69,29.85-33.69s28.49,10.53,28.49,31.71c0,2.1-.12,3.34-.37,4.58h-49.42c.74,15.73,8.42,23.53,22.05,23.53,7.8,0,15.48-2.6,18.83-11.89h8.05c-4.34,14.24-15.24,18.95-27,18.95-17.96,0-30.47-10.78-30.47-33.19ZM353.76,53.14c-.25-14.49-7.93-22.3-20.19-22.3s-20.19,7.19-21.06,22.3h41.25Z"/>
    <path class="cls-1" d="M378.79,73.2c0-11.02,7.3-16.72,20.31-18.33l16.72-1.86c6.94-.87,9.04-2.35,9.04-4.34v-3.1c0-11.15-5.7-14.86-16.85-14.86s-16.97,3.84-16.97,12.39v1.49h-8.42v-2.11c0-12.88,9.17-18.7,25.64-18.7s25.39,6.44,25.39,21.92v43.72h-8.42v-11.4h-.37c-1.74,3.47-9.17,12.63-25.02,12.63-12.26,0-21.06-5.57-21.06-17.46ZM401.82,83.61c15.73,0,23.04-10.53,23.04-16.85v-10.28c-.49,1.49-2.85,2.73-9.66,3.47l-13.99,1.73c-10.28,1.24-13.63,5.08-13.63,11.02,0,7.93,6.07,10.9,14.25,10.9Z"/>
    <path class="cls-1" d="M457.07,25.02h8.8v11.02c4.71-8.18,13.75-12.26,23.29-12.26,15.11,0,29.11,10.28,29.11,33.44s-14,33.44-29.11,33.44c-9.54,0-18.58-4.09-23.29-12.26v34.56h-8.8V25.02ZM487.79,83.23c11.4,0,22.17-8.3,22.17-26.01s-10.77-26.01-22.17-26.01-22.29,8.3-22.29,26.01,11.02,26.01,22.29,26.01Z"/>
    <path class="cls-1" d="M535.61,57.22c0-22.79,14.86-33.44,30.84-33.44s30.72,10.65,30.72,33.44-14.86,33.44-30.72,33.44-30.84-10.65-30.84-33.44ZM566.45,83.23c11.52,0,22.29-8.05,22.29-26.01s-10.78-26.01-22.29-26.01-22.29,8.05-22.29,26.01,10.65,26.01,22.29,26.01Z"/>
    <path class="cls-1" d="M616.99,2.72h8.8v86.7h-8.8V2.72Z"/>
    <path class="cls-1" d="M653.16,0c3.1,0,5.7,2.6,5.7,5.82s-2.6,5.7-5.7,5.7-5.82-2.6-5.82-5.7,2.73-5.82,5.82-5.82ZM648.7,25.02h8.8v64.41h-8.8V25.02Z"/>
    <path class="cls-1" d="M676.69,71.59h8.05c1.24,9.17,9.78,12.02,18.46,12.02,9.17,0,16.6-3.34,16.6-11.89,0-6.69-4.58-8.92-11.89-10.65l-12.14-2.85c-11.27-2.72-16.97-8.17-16.97-17.09,0-11.27,9.41-17.34,23.91-17.34s23.78,5.95,24.52,18.7h-7.43c-1.36-8.79-7.68-11.64-16.97-11.64-9.91,0-15.48,3.22-15.48,10.28,0,5.33,3.1,8.42,11.27,10.41l12.14,2.72c10.65,2.6,18.09,6.57,18.09,17.34,0,14.24-12.76,19.07-25.76,19.07-14.37,0-25.64-5.82-26.38-19.07Z"/>
    <path class="cls-1" d="M782.98,46.08c0-29.35,16.22-44.47,39.02-44.47,17.34,0,30.47,8.67,33.44,25.76h-8.92c-3.1-11.52-12.14-17.84-24.65-17.84-17.71,0-29.73,12.63-29.73,36.54s11.89,36.66,29.73,36.66c12.51,0,21.55-6.32,24.65-17.96h8.92c-2.97,17.22-16.1,25.89-33.57,25.89-22.67,0-38.89-15.11-38.89-44.59Z"/>
    <path class="cls-1" d="M871.05,57.22c0-22.79,14.86-33.44,30.84-33.44s30.72,10.65,30.72,33.44-14.86,33.44-30.72,33.44-30.84-10.65-30.84-33.44ZM901.89,83.23c11.52,0,22.29-8.05,22.29-26.01s-10.78-26.01-22.29-26.01-22.29,8.05-22.29,26.01,10.65,26.01,22.29,26.01Z"/>
    <path class="cls-1" d="M952.43,2.72h8.8v86.7h-8.8V2.72Z"/>
    <path class="cls-1" d="M984.14,2.72h8.8v86.7h-8.8V2.72Z"/>
    <path class="cls-1" d="M1012.75,57.47c0-23.41,13.38-33.69,29.85-33.69s28.49,10.53,28.49,31.71c0,2.1-.12,3.34-.37,4.58h-49.42c.74,15.73,8.42,23.53,22.05,23.53,7.8,0,15.48-2.6,18.83-11.89h8.05c-4.33,14.24-15.24,18.95-27,18.95-17.96,0-30.47-10.78-30.47-33.19ZM1062.67,53.14c-.25-14.49-7.93-22.3-20.19-22.3s-20.19,7.19-21.06,22.3h41.24Z"/>
    <path class="cls-1" d="M1090.55,95.5h7.68c.37,8.05,8.8,12.76,20.07,12.76,12.14,0,21.92-5.57,21.92-19.69v-12.39h-.25c-4.58,7.93-13.87,11.89-23.16,11.89-14.74,0-28.49-9.78-28.49-32.08s13.87-32.2,28.49-32.2c9.29,0,18.58,3.96,23.16,11.89h.25v-10.65h8.8v63.54c0,21.18-16.72,26.75-30.72,26.75s-27.62-5.33-27.74-19.82ZM1118.54,80.63c11.27,0,22.05-7.8,22.05-24.65s-10.78-24.77-22.05-24.77-21.8,7.93-21.8,24.77,10.41,24.65,21.8,24.65Z"/>
    <path class="cls-1" d="M1168.99,57.47c0-23.41,13.37-33.69,29.85-33.69s28.49,10.53,28.49,31.71c0,2.1-.12,3.34-.37,4.58h-49.42c.74,15.73,8.42,23.53,22.05,23.53,7.8,0,15.48-2.6,18.83-11.89h8.05c-4.34,14.24-15.24,18.95-27,18.95-17.96,0-30.47-10.78-30.47-33.19ZM1218.9,53.14c-.25-14.49-7.93-22.3-20.19-22.3s-20.19,7.19-21.06,22.3h41.25Z"/>
    <path class="cls-1" d="M1.74,400.35h23.32l42.63,102.38,42.63-102.38h23.32v127.52h-18.95v-93.64h-.73l-38.81,93.64h-14.94l-38.99-93.64h-.54v93.64H1.74v-127.52Z"/>
    <path class="cls-1" d="M151.48,464.12c0-41.17,24.41-65.4,58.84-65.4s58.66,24.23,58.66,65.4-24.41,65.58-58.66,65.58-58.84-24.41-58.84-65.58ZM210.32,513.31c23.32,0,39.35-17.49,39.35-49.19s-16.03-49.01-39.35-49.01-39.53,17.31-39.53,49.01,16.03,49.19,39.53,49.19Z"/>
    <path class="cls-1" d="M315.25,417.3h-39.17v-16.94h97.28v16.94h-39.17v110.58h-18.95v-110.58Z"/>
    <path class="cls-1" d="M388.66,400.35h18.95v127.52h-18.95v-127.52Z"/>
    <path class="cls-1" d="M425.46,464.12c0-41.17,24.41-65.4,58.84-65.4s58.66,24.23,58.66,65.4-24.41,65.58-58.66,65.58-58.84-24.41-58.84-65.58ZM484.3,513.31c23.32,0,39.35-17.49,39.35-49.19s-16.03-49.01-39.35-49.01-39.53,17.31-39.53,49.01,16.03,49.19,39.53,49.19Z"/>
    <path class="cls-1" d="M560.98,400.35h20.4l62.3,97.83h.55v-97.83h18.95v127.52h-21.13l-61.76-96.92h-.37v96.92h-18.95v-127.52Z"/>
    <path class="cls-1" d="M723.48,489.26h19.31c.73,13.66,9.84,24.41,30.97,24.41,18.95,0,28.78-8.38,28.78-21.5s-8.93-17.85-22.95-20.59l-17.12-3.46c-21.68-4.37-35.34-14.58-35.34-34.25,0-22.04,16.94-35.16,45.73-35.16s45.91,13.3,45.91,35.71h-19.31c-.18-12.02-9.47-19.68-26.96-19.68-18.4,0-25.69,8.56-25.69,19.13,0,8.93,5.47,15.85,20.59,18.95l16.4,3.28c25.51,5.1,38.62,15.48,38.62,35.89,0,24.78-19.49,37.71-48.82,37.71-32.25,0-50.1-15.85-50.1-40.44Z"/>
    <path class="cls-1" d="M921.13,472.86h-61.76v55.02h-18.95v-127.52h18.95v56.84h61.76v-56.84h18.76v127.52h-18.76v-55.02Z"/>
    <path class="cls-1" d="M957.92,464.12c0-41.17,24.41-65.4,58.84-65.4s58.66,24.23,58.66,65.4-24.41,65.58-58.66,65.58-58.84-24.41-58.84-65.58ZM1016.76,513.31c23.32,0,39.35-17.49,39.35-49.19s-16.03-49.01-39.35-49.01-39.53,17.31-39.53,49.01,16.03,49.19,39.53,49.19Z"/>
    <path class="cls-1" d="M1082.52,400.35h19.31l25.14,100.93h.91l29.69-100.93h19.86l29.51,100.93h.91l25.14-100.93h19.31l-33.7,127.52h-20.04l-31.15-103.48-31.15,103.48h-19.86l-33.89-127.52Z"/>
    <path class="cls-1" d="M1.74,141.67h85.17c55.75,0,81.14,28.8,81.14,70.92s-25.4,70.61-81.14,70.61h-44.6v75.26H1.74v-216.8ZM85.36,247.59c27.88,0,40.57-13.32,40.57-35s-12.7-35.31-40.57-35.31h-43.05v70.3h43.05Z"/>
    <path class="cls-1" d="M333.43,267.72h-92.91v90.74h-40.57v-216.8h40.57v92.29h92.91v-92.29h40.57v216.8h-40.57v-90.74Z"/>
    <path class="cls-1" d="M402.79,250.06c0-68.13,41.19-111.18,101.89-111.18s102.21,43.05,102.21,111.18-41.5,111.5-102.21,111.5-101.89-43.67-101.89-111.5ZM504.68,326.25c37.17,0,60.09-28.8,60.09-76.19s-22.92-75.88-60.09-75.88-60.08,28.18-60.08,75.88,22.92,76.19,60.08,76.19Z"/>
    <path class="cls-1" d="M681.2,177.9h-64.42v-36.24h169.41v36.24h-64.42v180.56h-40.57v-180.56Z"/>
    <path class="cls-1" d="M796.4,250.06c0-68.13,41.19-111.18,101.89-111.18s102.2,43.05,102.2,111.18-41.5,111.5-102.2,111.5-101.89-43.67-101.89-111.5ZM898.29,326.25c37.17,0,60.08-28.8,60.08-76.19s-22.92-75.88-60.08-75.88-60.08,28.18-60.08,75.88,22.92,76.19,60.08,76.19Z"/>
    <path class="cls-1" d="M1073.61,302.97c0-25.7,14.25-48,53.89-67.21-11.46-12.08-28.18-30.66-28.18-53.58,0-21.37,14.87-40.88,45.84-40.88,29.11,0,46.15,16.72,46.15,41.81,0,16.72-7.12,36.85-45.84,56.06l66.9,76.19c8.67-15.48,13.94-36.85,13.94-64.73h11.77c0,32.52-6.81,56.68-17.65,74.02l31.9,36.24h-14.87l-23.54-26.94c-17.96,21.68-43.67,30.04-68.75,30.04-41.81,0-71.54-25.09-71.54-61.01ZM1146.7,352.53c22.92,0,44.6-8.05,59.46-27.25l-71.23-81.14h-.31c-30.04,13.94-48.31,31.28-48.31,57.6,0,30.66,25.4,50.79,60.39,50.79ZM1138.03,230.81l1.24-.62c26.94-13.32,40.57-26.63,40.57-47.08s-13.94-31.28-34.38-31.28c-21.68,0-34.69,12.7-34.69,30.66,0,20.13,16.72,36.55,27.25,48.32Z"/>
    <rect class="cls-3" y="597.01" width="899.6" height="59.78"/>
  </g>
  <text class="cls-2" transform="translate(961.22 667.66)"><tspan x="0" y="0">2025</tspan></text>
</svg>